<?xml version="1.0" encoding="UTF-8"?>
<svg xmlns="http://www.w3.org/2000/svg" xmlns:xlink="http://www.w3.org/1999/xlink" width="32px" height="32px" viewBox="0 0 32 32" version="1.1">
<g id="surface1">
<path style=" stroke:none;fill-rule:evenodd;fill:rgb(0%,0%,0%);fill-opacity:1;" d="M 14.753906 0.601562 C 14.746094 0.609375 14.585938 0.621094 14.398438 0.632812 C 13.902344 0.65625 13.890625 0.660156 12.972656 0.808594 C 11.027344 1.121094 9.285156 1.742188 7.515625 2.75 C 5.609375 3.839844 3.429688 5.875 2.515625 7.425781 C 2.460938 7.515625 2.3125 7.75 2.183594 7.945312 C 0.867188 9.972656 0.160156 12.722656 0.195312 15.671875 C 0.210938 16.9375 0.21875 17.023438 0.417969 18.191406 C 0.863281 20.792969 2.292969 23.476562 4.382812 25.625 C 4.632812 25.882812 5.621094 26.777344 5.839844 26.941406 C 6.011719 27.074219 5.996094 27.097656 5.371094 27.742188 C 5.050781 28.074219 4.066406 29.09375 3.179688 30.007812 C 2.292969 30.925781 1.5 31.742188 1.421875 31.820312 L 1.273438 31.96875 L 7.859375 31.96875 L 8.992188 30.835938 C 10.324219 29.496094 11.375 28.449219 13.8125 26.03125 C 15.320312 24.53125 15.621094 24.246094 15.679688 24.257812 C 15.789062 24.289062 18.296875 26.855469 18.285156 26.929688 C 18.273438 26.996094 17.246094 28.066406 14.917969 30.4375 L 13.429688 31.953125 L 16.738281 31.960938 L 20.042969 31.96875 L 20.832031 31.195312 C 21.265625 30.769531 21.640625 30.40625 21.660156 30.390625 C 21.683594 30.367188 21.722656 30.371094 21.785156 30.402344 C 21.878906 30.453125 23.3125 31.894531 23.3125 31.941406 C 23.3125 31.957031 24.132812 31.96875 25.164062 31.96875 L 27.019531 31.96875 L 27.800781 31.199219 C 28.230469 30.773438 28.582031 30.410156 28.582031 30.390625 C 28.582031 30.347656 28.257812 30.015625 26.816406 28.566406 C 25.347656 27.09375 25.203125 26.945312 25.203125 26.875 C 25.203125 26.839844 25.390625 26.65625 25.707031 26.386719 C 26.707031 25.527344 27.808594 24.386719 28.417969 23.585938 C 28.875 22.984375 29.386719 22.179688 29.386719 22.0625 C 29.386719 21.921875 26.535156 19.03125 26.414062 19.050781 C 26.332031 19.0625 25.449219 19.917969 23.304688 22.066406 C 22.492188 22.882812 21.855469 23.496094 21.824219 23.496094 C 21.757812 23.496094 19.175781 20.925781 19.164062 20.847656 C 19.160156 20.808594 19.6875 20.261719 20.785156 19.167969 C 21.679688 18.277344 22.414062 17.523438 22.414062 17.5 C 22.414062 17.472656 21.859375 16.902344 21.179688 16.230469 C 20.503906 15.558594 19.773438 14.832031 19.558594 14.617188 C 19.253906 14.308594 19.152344 14.222656 19.085938 14.222656 C 19.019531 14.222656 18.683594 14.542969 17.214844 15.992188 C 15.507812 17.679688 13.675781 19.480469 12.714844 20.421875 C 12.253906 20.871094 11.730469 21.402344 10.371094 22.785156 C 9.929688 23.238281 9.554688 23.609375 9.535156 23.613281 C 9.441406 23.636719 8.472656 22.800781 7.925781 22.222656 C 6.238281 20.4375 5.582031 19.042969 5.179688 16.410156 C 5.0625 15.664062 5.195312 14.046875 5.460938 12.960938 C 6.195312 9.933594 8.789062 7.226562 11.832031 6.3125 C 12.171875 6.210938 12.175781 6.207031 12.214844 5.734375 C 12.414062 3.457031 13.953125 1.414062 15.992188 0.726562 C 16.355469 0.605469 16.285156 0.585938 15.492188 0.585938 C 15.09375 0.585938 14.761719 0.59375 14.753906 0.601562 "/>
<path style=" stroke:none;fill-rule:evenodd;fill:rgb(85.882354%,14.901961%,11.372549%);fill-opacity:1;" d="M 30.613281 0.515625 C 29.871094 1.226562 29.382812 1.480469 28.3125 1.699219 C 26.546875 2.058594 25.496094 3.527344 25.933594 5.023438 C 26.707031 7.695312 30.46875 7.402344 30.917969 4.636719 C 31 4.113281 31.023438 0.214844 30.941406 0.214844 C 30.929688 0.214844 30.78125 0.351562 30.613281 0.515625 M 14.617188 0.578125 C 14.546875 0.585938 14.480469 0.605469 14.460938 0.625 C 14.441406 0.648438 14.449219 0.652344 14.492188 0.632812 C 14.527344 0.621094 14.929688 0.601562 15.386719 0.59375 C 16.300781 0.578125 16.378906 0.597656 15.992188 0.726562 C 13.953125 1.414062 12.414062 3.457031 12.214844 5.734375 C 12.175781 6.207031 12.171875 6.210938 11.832031 6.3125 C 8.789062 7.226562 6.195312 9.933594 5.460938 12.960938 C 5.195312 14.046875 5.0625 15.664062 5.179688 16.410156 C 5.582031 19.042969 6.238281 20.4375 7.925781 22.222656 C 8.472656 22.800781 9.441406 23.636719 9.535156 23.613281 C 9.554688 23.609375 9.929688 23.238281 10.371094 22.785156 C 11.730469 21.402344 12.253906 20.871094 12.714844 20.421875 C 13.675781 19.480469 15.507812 17.679688 17.214844 15.992188 C 18.683594 14.542969 19.019531 14.222656 19.085938 14.222656 C 19.152344 14.222656 19.253906 14.308594 19.558594 14.617188 C 19.773438 14.832031 20.503906 15.558594 21.179688 16.230469 C 21.859375 16.902344 22.414062 17.472656 22.414062 17.5 C 22.414062 17.523438 21.679688 18.277344 20.785156 19.167969 C 19.6875 20.261719 19.160156 20.808594 19.164062 20.847656 C 19.175781 20.925781 21.757812 23.496094 21.824219 23.496094 C 21.855469 23.496094 22.492188 22.882812 23.304688 22.066406 C 25.449219 19.917969 26.332031 19.0625 26.414062 19.050781 C 26.535156 19.03125 29.386719 21.921875 29.386719 22.0625 C 29.386719 22.179688 28.875 22.984375 28.417969 23.585938 C 27.808594 24.386719 26.707031 25.527344 25.707031 26.386719 C 25.390625 26.65625 25.203125 26.839844 25.203125 26.875 C 25.203125 26.945312 25.347656 27.09375 26.816406 28.566406 C 28.273438 30.03125 28.582031 30.347656 28.582031 30.394531 C 28.582031 30.414062 28.265625 30.738281 27.882812 31.113281 C 27.496094 31.492188 27.152344 31.839844 27.117188 31.890625 C 27.082031 31.941406 27.40625 31.636719 27.835938 31.207031 C 28.535156 30.515625 28.617188 30.421875 28.597656 30.359375 C 28.585938 30.316406 27.820312 29.53125 26.902344 28.609375 C 25.742188 27.445312 25.230469 26.917969 25.238281 26.878906 C 25.246094 26.847656 25.5 26.605469 25.808594 26.339844 C 28.683594 23.839844 30.195312 21.429688 30.765625 18.425781 C 30.910156 17.664062 30.933594 17.488281 30.960938 17.019531 C 31.003906 16.3125 30.992188 8.1875 30.949219 8.171875 C 30.929688 8.164062 30.851562 8.308594 30.769531 8.492188 C 30.203125 9.773438 29.914062 10.316406 29.464844 10.941406 C 28.886719 11.746094 28.566406 12.132812 28.011719 12.707031 C 26.238281 14.539062 25.667969 15.242188 25.175781 16.226562 C 24.59375 17.386719 24.359375 18.945312 24.578125 20.199219 C 24.613281 20.414062 24.644531 20.601562 24.644531 20.609375 C 24.644531 20.664062 21.878906 23.464844 21.828125 23.464844 C 21.765625 23.464844 19.1875 20.898438 19.191406 20.839844 C 19.191406 20.8125 19.921875 20.0625 20.816406 19.171875 C 21.894531 18.097656 22.445312 17.527344 22.445312 17.484375 C 22.445312 17.441406 21.953125 16.933594 20.859375 15.859375 C 19.6875 14.703125 19.277344 14.277344 19.285156 14.234375 C 19.296875 14.179688 19.355469 14.175781 20.660156 14.15625 C 22.1875 14.136719 22.246094 14.128906 23.027344 13.863281 C 25.773438 12.933594 26.796875 10.050781 25.179688 7.792969 C 24.921875 7.429688 24.28125 6.769531 24.191406 6.769531 C 24.144531 6.769531 24.085938 6.839844 23.96875 7.03125 C 23.289062 8.136719 22.285156 8.910156 21.0625 9.261719 C 20.183594 9.519531 19.792969 9.550781 17.328125 9.582031 C 14.992188 9.613281 15.046875 9.609375 14.191406 9.828125 C 10.609375 10.738281 8.75 13.851562 9.761719 17.238281 C 10.105469 18.386719 11.0625 19.714844 12.097656 20.480469 C 12.230469 20.578125 12.339844 20.671875 12.339844 20.6875 C 12.339844 20.707031 11.878906 21.1875 11.320312 21.761719 C 10.757812 22.332031 10.140625 22.96875 9.949219 23.171875 C 9.503906 23.644531 9.546875 23.621094 9.339844 23.460938 C 7.304688 21.910156 5.808594 19.660156 5.390625 17.519531 C 5.230469 16.683594 5.191406 16.316406 5.195312 15.535156 C 5.195312 14.847656 5.214844 14.570312 5.316406 13.882812 C 5.914062 9.859375 9.070312 6.722656 13.238281 6.007812 C 13.484375 5.964844 13.9375 5.953125 16.042969 5.9375 C 18.703125 5.910156 18.648438 5.914062 19.433594 5.753906 C 21.394531 5.347656 23.03125 4.164062 24.527344 2.070312 C 25.15625 1.191406 25.414062 0.667969 25.265625 0.589844 C 25.210938 0.558594 14.921875 0.550781 14.617188 0.578125 M 14.042969 0.621094 C 13.898438 0.636719 13.6875 0.660156 13.578125 0.679688 C 13.46875 0.695312 13.199219 0.738281 12.980469 0.773438 C 11.027344 1.082031 9.3125 1.695312 7.460938 2.742188 C 6.402344 3.34375 4.882812 4.527344 4.203125 5.285156 C 4.148438 5.34375 4.007812 5.496094 3.890625 5.625 C 2.039062 7.613281 0.785156 10.144531 0.375 12.714844 C 0.304688 13.15625 0.28125 13.320312 0.25 13.574219 C 0.230469 13.71875 0.199219 13.976562 0.179688 14.144531 C 0.0859375 14.898438 0.144531 16.636719 0.296875 17.675781 C 0.796875 21.082031 2.535156 24.128906 5.386719 26.605469 C 5.679688 26.859375 5.921875 27.082031 5.921875 27.09375 C 5.921875 27.125 5.742188 27.3125 3.890625 29.21875 C 1.835938 31.335938 1.257812 31.9375 1.289062 31.9375 C 1.304688 31.9375 1.375 31.878906 1.441406 31.804688 C 1.574219 31.667969 4.386719 28.757812 5.371094 27.742188 C 5.996094 27.097656 6.011719 27.074219 5.839844 26.941406 C 3.148438 24.898438 0.960938 21.367188 0.417969 18.191406 C 0.21875 17.023438 0.210938 16.9375 0.195312 15.671875 C 0.160156 12.722656 0.867188 9.972656 2.183594 7.945312 C 2.3125 7.75 2.460938 7.515625 2.515625 7.425781 C 3.054688 6.511719 4.488281 4.949219 5.582031 4.085938 C 7.828125 2.308594 10.21875 1.25 12.972656 0.808594 C 13.195312 0.773438 13.453125 0.730469 13.546875 0.710938 C 13.640625 0.695312 13.84375 0.671875 13.996094 0.660156 C 14.148438 0.652344 14.296875 0.628906 14.320312 0.617188 C 14.347656 0.601562 14.355469 0.589844 14.335938 0.59375 C 14.320312 0.59375 14.1875 0.605469 14.042969 0.621094 M 13.796875 26.042969 C 11.570312 28.25 7.921875 31.902344 7.914062 31.933594 C 7.910156 31.945312 9.625 30.238281 11.726562 28.144531 C 15.507812 24.371094 15.628906 24.253906 15.738281 24.339844 C 15.917969 24.472656 18.257812 26.863281 18.257812 26.910156 C 18.257812 26.972656 16.644531 28.648438 14.296875 31.011719 C 13.496094 31.824219 13.359375 31.96875 13.402344 31.96875 C 13.417969 31.96875 16.6875 28.636719 17.632812 27.65625 C 17.996094 27.277344 18.289062 26.949219 18.289062 26.917969 C 18.289062 26.847656 15.773438 24.285156 15.679688 24.257812 C 15.621094 24.246094 15.316406 24.53125 13.796875 26.042969 M 20.886719 31.144531 C 20.445312 31.570312 20.089844 31.933594 20.089844 31.945312 C 20.089844 31.957031 20.4375 31.625 20.867188 31.203125 C 21.316406 30.761719 21.671875 30.433594 21.710938 30.429688 C 21.761719 30.421875 21.957031 30.597656 22.542969 31.1875 C 22.964844 31.609375 23.3125 31.945312 23.3125 31.9375 C 23.3125 31.855469 21.769531 30.355469 21.695312 30.363281 C 21.6875 30.363281 21.324219 30.714844 20.886719 31.144531 "/>
<path style=" stroke:none;fill-rule:evenodd;fill:rgb(100%,100%,100%);fill-opacity:1;" d="M 0 15.984375 L 0 31.96875 L 0.628906 31.964844 L 1.253906 31.960938 L 1.550781 31.648438 C 1.710938 31.476562 2.632812 30.519531 3.597656 29.527344 C 5.683594 27.375 5.921875 27.125 5.921875 27.09375 C 5.921875 27.078125 5.679688 26.859375 5.386719 26.605469 C 2.535156 24.128906 0.796875 21.082031 0.296875 17.675781 C 0.144531 16.636719 0.0859375 14.898438 0.179688 14.144531 C 0.199219 13.976562 0.230469 13.71875 0.25 13.574219 C 0.28125 13.320312 0.304688 13.15625 0.375 12.714844 C 0.785156 10.144531 2.039062 7.613281 3.890625 5.625 C 4.007812 5.496094 4.148438 5.34375 4.203125 5.285156 C 4.882812 4.527344 6.402344 3.34375 7.460938 2.742188 C 9.328125 1.6875 11.136719 1.046875 13.066406 0.757812 C 13.253906 0.730469 13.476562 0.695312 13.5625 0.679688 C 13.648438 0.664062 13.820312 0.644531 13.949219 0.632812 C 14.078125 0.621094 14.257812 0.605469 14.351562 0.597656 C 14.699219 0.5625 25.203125 0.554688 25.265625 0.585938 C 25.414062 0.667969 25.15625 1.1875 24.527344 2.070312 C 23.03125 4.164062 21.394531 5.347656 19.433594 5.753906 C 18.648438 5.914062 18.703125 5.910156 16.042969 5.9375 C 13.9375 5.953125 13.484375 5.964844 13.238281 6.007812 C 10.058594 6.554688 7.476562 8.464844 6.105469 11.300781 C 5.214844 13.132812 4.964844 15.328125 5.390625 17.519531 C 5.808594 19.660156 7.304688 21.910156 9.339844 23.460938 C 9.546875 23.621094 9.503906 23.644531 9.949219 23.171875 C 10.140625 22.96875 10.757812 22.332031 11.320312 21.761719 C 11.878906 21.1875 12.339844 20.707031 12.339844 20.6875 C 12.339844 20.671875 12.230469 20.578125 12.097656 20.480469 C 11.0625 19.714844 10.105469 18.386719 9.761719 17.238281 C 8.75 13.851562 10.609375 10.738281 14.191406 9.828125 C 15.046875 9.609375 14.992188 9.613281 17.328125 9.582031 C 19.792969 9.550781 20.183594 9.519531 21.0625 9.261719 C 22.285156 8.910156 23.289062 8.136719 23.96875 7.03125 C 24.179688 6.6875 24.175781 6.6875 24.613281 7.136719 C 26.917969 9.488281 26.136719 12.808594 23.027344 13.863281 C 22.246094 14.128906 22.1875 14.136719 20.660156 14.15625 C 19.355469 14.175781 19.296875 14.179688 19.285156 14.234375 C 19.277344 14.277344 19.6875 14.703125 20.859375 15.859375 C 21.953125 16.933594 22.445312 17.441406 22.445312 17.484375 C 22.445312 17.527344 21.894531 18.097656 20.816406 19.171875 C 19.921875 20.0625 19.191406 20.8125 19.191406 20.839844 C 19.1875 20.898438 21.765625 23.464844 21.828125 23.464844 C 21.878906 23.464844 24.644531 20.664062 24.644531 20.609375 C 24.644531 20.601562 24.613281 20.414062 24.578125 20.199219 C 24.359375 18.945312 24.59375 17.386719 25.175781 16.226562 C 25.667969 15.242188 26.238281 14.539062 28.011719 12.707031 C 28.566406 12.132812 28.886719 11.746094 29.464844 10.941406 C 29.914062 10.316406 30.203125 9.773438 30.769531 8.492188 C 30.871094 8.261719 30.929688 8.164062 30.957031 8.175781 C 30.992188 8.1875 31 7.710938 30.992188 5.277344 C 30.988281 3.203125 30.980469 2.679688 30.96875 3.460938 C 30.949219 4.640625 30.933594 4.765625 30.765625 5.210938 C 29.984375 7.289062 27.109375 7.46875 26.113281 5.496094 C 25.300781 3.882812 26.328125 2.105469 28.3125 1.699219 C 29.382812 1.480469 29.871094 1.226562 30.613281 0.515625 C 30.980469 0.160156 30.964844 0.164062 30.976562 0.425781 C 30.984375 0.589844 30.988281 0.566406 30.992188 0.316406 L 31 0 L 0 0 L 0 15.984375 M 30.984375 13.960938 C 30.984375 14.792969 30.988281 15.128906 30.992188 14.707031 C 30.996094 14.285156 30.996094 13.601562 30.992188 13.191406 C 30.988281 12.78125 30.984375 13.125 30.984375 13.960938 M 30.957031 17.117188 C 30.9375 17.476562 30.910156 17.65625 30.765625 18.425781 C 30.195312 21.429688 28.683594 23.839844 25.808594 26.339844 C 25.5 26.605469 25.246094 26.847656 25.238281 26.878906 C 25.230469 26.917969 25.742188 27.445312 26.902344 28.609375 C 27.820312 29.53125 28.585938 30.316406 28.597656 30.359375 C 28.617188 30.421875 28.535156 30.515625 27.847656 31.199219 L 27.078125 31.96875 L 31 31.96875 L 31 24.363281 C 31 20.179688 30.996094 16.757812 30.988281 16.757812 C 30.984375 16.757812 30.96875 16.917969 30.957031 17.117188 M 11.820312 28.050781 C 9.75 30.113281 8.027344 31.835938 7.992188 31.882812 L 7.933594 31.96875 L 10.652344 31.964844 L 13.375 31.960938 L 14.289062 31.03125 C 17.519531 27.742188 18.257812 26.972656 18.257812 26.910156 C 18.257812 26.816406 15.742188 24.304688 15.640625 24.300781 C 15.601562 24.300781 14.246094 25.632812 11.820312 28.050781 M 20.878906 31.191406 L 20.101562 31.953125 L 21.679688 31.960938 C 22.550781 31.964844 23.265625 31.960938 23.277344 31.953125 C 23.308594 31.921875 21.78125 30.421875 21.714844 30.425781 C 21.675781 30.425781 21.363281 30.710938 20.878906 31.191406 "/>
</g>
</svg>
