<svg id="svg" version="1.1" xmlns="http://www.w3.org/2000/svg" xmlns:xlink="http://www.w3.org/1999/xlink" width="400" height="413.87283236994216" viewBox="0, 0, 400,413.87283236994216"><g id="svgg"><path id="path0" d="M190.364 7.770 C 190.270 7.863,188.215 8.045,185.797 8.173 C 179.391 8.514,179.235 8.533,167.400 10.441 C 142.281 14.490,119.794 22.522,97.000 35.588 C 72.377 49.702,44.270 76.029,32.445 96.053 C 31.747 97.234,29.835 100.270,28.194 102.800 C 11.205 129.001,2.057 164.614,2.514 202.770 C 2.711 219.142,2.806 220.219,5.388 235.336 C 11.139 269.009,29.607 303.733,56.558 331.546 C 59.787 334.878,72.537 346.443,75.332 348.575 C 77.557 350.273,77.390 350.560,69.300 358.924 C 65.175 363.188,52.445 376.380,41.011 388.239 C 29.577 400.097,19.367 410.655,18.323 411.700 L 16.424 413.600 58.925 413.600 L 101.426 413.600 116.013 398.928 C 133.237 381.602,146.769 368.078,178.216 336.755 C 197.682 317.367,201.573 313.668,202.300 313.858 C 203.730 314.232,236.080 347.449,235.928 348.388 C 235.789 349.246,222.514 363.125,192.493 393.800 L 173.311 413.400 215.963 413.502 L 258.614 413.604 268.807 403.594 C 274.413 398.089,279.212 393.397,279.471 393.167 C 279.802 392.874,280.288 392.929,281.106 393.351 C 282.328 393.983,300.800 412.648,300.800 413.251 C 300.800 413.446,311.379 413.600,324.711 413.600 L 348.622 413.600 358.711 403.617 C 364.260 398.126,368.800 393.432,368.800 393.186 C 368.800 392.636,364.630 388.321,346.006 369.600 C 327.046 350.542,325.200 348.600,325.200 347.713 C 325.200 347.246,327.621 344.882,331.682 341.384 C 344.620 330.238,358.840 315.524,366.694 305.155 C 372.600 297.356,379.200 286.945,379.200 285.428 C 379.200 283.594,342.384 246.230,340.807 246.464 C 339.766 246.618,328.402 257.687,300.729 285.500 C 290.229 296.054,282.017 304.000,281.612 304.000 C 280.752 304.000,247.448 270.726,247.290 269.708 C 247.216 269.232,254.054 262.129,268.190 248.001 C 279.745 236.452,289.200 226.730,289.200 226.397 C 289.200 226.064,282.045 218.684,273.300 209.998 C 264.555 201.312,255.141 191.909,252.380 189.103 C 248.437 185.094,247.131 184.000,246.293 184.000 C 245.417 184.000,241.063 188.126,222.113 206.915 C 200.091 228.748,176.483 252.047,164.073 264.194 C 158.113 270.029,151.341 276.878,133.827 294.791 C 128.122 300.626,123.262 305.450,123.027 305.510 C 121.811 305.823,109.341 295.004,102.286 287.514 C 80.501 264.387,72.010 246.381,66.813 212.293 C 65.343 202.652,67.049 181.710,70.447 167.685 C 79.933 128.529,113.413 93.496,152.652 81.666 C 157.061 80.337,157.096 80.284,157.624 74.200 C 160.180 44.723,180.056 18.310,206.376 9.413 C 211.021 7.842,210.155 7.600,199.900 7.600 C 194.748 7.600,190.457 7.676,190.364 7.770 " stroke="none" fill="#000000" fill-rule="evenodd"></path><path id="path1" d="M394.990 6.650 C 385.432 15.873,379.125 19.130,365.337 21.963 C 342.558 26.644,328.996 45.622,334.603 64.971 C 344.622 99.546,393.128 95.793,398.925 59.994 C 400.022 53.219,400.296 2.800,399.236 2.800 C 399.096 2.800,397.185 4.533,394.990 6.650 M188.600 7.494 C 187.720 7.582,186.820 7.848,186.600 8.086 C 186.317 8.391,186.435 8.422,187.000 8.192 C 187.440 8.012,192.636 7.786,198.548 7.690 C 210.316 7.497,211.362 7.727,206.376 9.413 C 180.056 18.310,160.180 44.723,157.624 74.200 C 157.096 80.284,157.061 80.337,152.652 81.666 C 113.413 93.496,79.933 128.529,70.447 167.685 C 67.049 181.710,65.343 202.652,66.813 212.293 C 72.010 246.381,80.501 264.387,102.286 287.514 C 109.341 295.004,121.811 305.823,123.027 305.510 C 123.262 305.450,128.122 300.626,133.827 294.791 C 151.341 276.878,158.113 270.029,164.073 264.194 C 176.483 252.047,200.091 228.748,222.113 206.915 C 241.063 188.126,245.417 184.000,246.293 184.000 C 247.131 184.000,248.437 185.094,252.380 189.103 C 255.141 191.909,264.555 201.312,273.300 209.998 C 282.045 218.684,289.200 226.064,289.200 226.397 C 289.200 226.730,279.745 236.452,268.190 248.001 C 254.054 262.129,247.216 269.232,247.290 269.708 C 247.448 270.726,280.752 304.000,281.612 304.000 C 282.017 304.000,290.229 296.054,300.729 285.500 C 328.402 257.687,339.766 246.618,340.807 246.464 C 342.384 246.230,379.200 283.594,379.200 285.428 C 379.200 286.945,372.600 297.356,366.694 305.155 C 358.840 315.524,344.620 330.238,331.682 341.384 C 327.621 344.882,325.200 347.246,325.200 347.713 C 325.200 348.600,327.046 350.542,346.006 369.600 C 364.827 388.518,368.800 392.635,368.800 393.217 C 368.800 393.479,364.732 397.678,359.760 402.547 C 354.789 407.416,350.353 411.940,349.904 412.600 C 349.455 413.260,353.632 409.280,359.188 403.755 C 368.215 394.777,369.257 393.608,368.992 392.755 C 368.829 392.230,358.984 382.048,347.113 370.129 C 332.140 355.094,325.572 348.240,325.667 347.748 C 325.742 347.358,329.043 344.217,333.002 340.769 C 370.124 308.439,389.626 277.226,396.964 238.400 C 398.826 228.549,399.146 226.250,399.502 220.200 C 400.041 211.057,399.908 105.903,399.358 105.720 C 399.114 105.638,398.061 107.513,397.016 109.886 C 389.720 126.458,385.993 133.476,380.209 141.533 C 372.723 151.961,368.611 156.968,361.429 164.400 C 338.541 188.087,331.205 197.214,324.849 209.918 C 317.322 224.960,314.292 245.087,317.112 261.309 C 317.600 264.118,318.000 266.518,318.000 266.642 C 318.000 267.342,282.321 303.600,281.631 303.600 C 280.830 303.600,247.601 270.387,247.614 269.600 C 247.620 269.270,257.069 259.561,268.612 248.025 C 282.495 234.150,289.605 226.770,289.615 226.225 C 289.625 225.657,283.264 219.102,269.174 205.162 C 254.052 190.201,248.756 184.725,248.864 184.162 C 249.004 183.431,249.723 183.390,266.605 183.164 C 286.276 182.901,287.035 182.807,297.111 179.377 C 332.576 167.304,345.763 130.027,324.901 100.819 C 321.561 96.143,313.322 87.600,312.152 87.600 C 311.543 87.600,310.778 88.494,309.258 90.981 C 300.518 105.283,287.549 115.268,271.773 119.842 C 260.418 123.134,255.387 123.567,223.600 123.992 C 193.467 124.395,194.154 124.342,183.102 127.161 C 136.890 138.951,112.903 179.194,125.963 223.023 C 130.391 237.884,142.749 255.077,156.100 264.952 C 157.805 266.213,159.200 267.432,159.200 267.660 C 159.200 267.889,153.285 274.133,146.056 281.538 C 138.827 288.942,130.870 297.160,128.373 299.800 C 122.621 305.882,123.204 305.606,120.490 303.532 C 94.234 283.469,74.934 254.338,69.567 226.672 C 67.470 215.864,66.998 211.112,67.018 201.000 C 67.035 192.097,67.306 188.481,68.618 179.600 C 76.313 127.548,117.019 86.969,170.800 77.739 C 173.987 77.192,179.826 77.040,207.000 76.795 C 241.317 76.487,240.645 76.524,250.760 74.428 C 276.056 69.186,297.185 53.868,316.458 26.800 C 324.582 15.389,327.947 8.642,326.026 7.614 C 325.288 7.219,192.523 7.103,188.600 7.494 M181.200 8.035 C 179.330 8.215,176.630 8.552,175.200 8.783 C 173.770 9.015,170.290 9.569,167.466 10.017 C 142.278 14.005,120.148 21.921,96.271 35.482 C 82.588 43.254,63.012 58.562,54.223 68.364 C 53.550 69.114,51.732 71.094,50.183 72.764 C 26.307 98.498,10.126 131.226,4.830 164.500 C 3.921 170.209,3.616 172.312,3.221 175.600 C 2.996 177.470,2.588 180.800,2.315 183.000 C 1.101 192.767,1.842 215.224,3.822 228.693 C 10.304 272.772,32.697 312.149,69.509 344.199 C 73.299 347.499,76.400 350.349,76.400 350.532 C 76.400 350.946,74.117 353.342,50.206 378.028 C 23.667 405.427,16.249 413.201,16.653 413.193 C 16.844 413.190,17.720 412.424,18.600 411.492 C 20.292 409.699,56.591 372.063,69.300 358.924 C 77.390 350.560,77.557 350.273,75.332 348.575 C 40.619 322.099,12.404 276.419,5.388 235.336 C 2.806 220.219,2.711 219.142,2.514 202.770 C 2.057 164.614,11.205 129.001,28.194 102.800 C 29.835 100.270,31.747 97.234,32.445 96.053 C 39.426 84.231,57.918 64.054,72.049 52.841 C 100.983 29.880,131.853 16.154,167.400 10.444 C 170.260 9.984,173.590 9.434,174.800 9.221 C 176.010 9.009,178.620 8.714,180.600 8.566 C 182.580 8.418,184.470 8.146,184.800 7.961 C 185.130 7.776,185.220 7.643,185.000 7.665 C 184.780 7.688,183.070 7.854,181.200 8.035 M178.031 336.916 C 149.311 365.491,102.236 412.734,102.100 413.118 C 102.045 413.273,124.185 391.213,151.300 364.096 C 200.090 315.302,201.670 313.800,203.078 314.875 C 205.384 316.634,235.600 347.559,235.600 348.159 C 235.600 348.982,214.763 370.616,184.492 401.222 C 174.118 411.711,172.357 413.600,172.952 413.600 C 173.131 413.600,215.306 370.469,227.515 357.800 C 232.221 352.916,235.996 348.675,235.998 348.270 C 236.001 347.356,203.507 314.174,202.300 313.858 C 201.573 313.668,197.649 317.396,178.031 336.916 M269.500 402.914 C 263.835 408.464,259.200 413.136,259.200 413.296 C 259.200 413.456,263.717 409.135,269.237 403.694 C 275.044 397.969,279.637 393.752,280.137 393.685 C 280.800 393.597,283.295 395.873,290.900 403.504 C 296.345 408.967,300.800 413.317,300.800 413.170 C 300.800 412.130,280.890 392.718,279.920 392.812 C 279.854 392.818,275.165 397.364,269.500 402.914 " stroke="none" fill="#db261d" fill-rule="evenodd"></path><path id="path2" d="M0.000 206.800 L 0.000 413.600 8.100 413.551 L 16.200 413.503 20.000 409.444 C 22.090 407.211,33.979 394.858,46.421 381.992 C 73.325 354.171,76.400 350.942,76.400 350.521 C 76.400 350.343,73.299 347.499,69.509 344.199 C 32.697 312.149,10.304 272.772,3.822 228.693 C 1.842 215.224,1.101 192.767,2.315 183.000 C 2.588 180.800,2.996 177.470,3.221 175.600 C 3.616 172.312,3.921 170.209,4.830 164.500 C 10.126 131.226,26.307 98.498,50.183 72.764 C 51.732 71.094,53.550 69.114,54.223 68.364 C 63.012 58.562,82.588 43.254,96.271 35.482 C 120.341 21.811,143.690 13.530,168.600 9.828 C 171.020 9.469,173.900 9.009,175.000 8.806 C 176.100 8.604,178.350 8.326,180.000 8.188 C 181.650 8.051,183.990 7.840,185.200 7.720 C 189.669 7.276,325.189 7.166,326.010 7.605 C 327.948 8.643,324.611 15.349,316.458 26.800 C 297.185 53.868,276.056 69.186,250.760 74.428 C 240.645 76.524,241.317 76.487,207.000 76.795 C 179.826 77.040,173.987 77.192,170.800 77.739 C 129.771 84.781,96.494 109.534,78.765 146.200 C 67.306 169.898,64.061 198.290,69.567 226.672 C 74.934 254.338,94.234 283.469,120.490 303.532 C 123.204 305.606,122.621 305.882,128.373 299.800 C 130.870 297.160,138.827 288.942,146.056 281.538 C 153.285 274.133,159.200 267.889,159.200 267.660 C 159.200 267.432,157.805 266.213,156.100 264.952 C 142.749 255.077,130.391 237.884,125.963 223.023 C 112.903 179.194,136.890 138.951,183.102 127.161 C 194.154 124.342,193.467 124.395,223.600 123.992 C 255.387 123.567,260.418 123.134,271.773 119.842 C 287.549 115.268,300.518 105.283,309.258 90.981 C 311.978 86.529,311.926 86.521,317.590 92.319 C 347.337 122.769,337.233 165.719,297.111 179.377 C 287.035 182.807,286.276 182.901,266.605 183.164 C 249.723 183.390,249.004 183.431,248.864 184.162 C 248.756 184.725,254.052 190.201,269.174 205.162 C 283.264 219.102,289.625 225.657,289.615 226.225 C 289.605 226.770,282.495 234.150,268.612 248.025 C 257.069 259.561,247.620 269.270,247.614 269.600 C 247.601 270.387,280.830 303.600,281.631 303.600 C 282.321 303.600,318.000 267.342,318.000 266.642 C 318.000 266.518,317.600 264.118,317.112 261.309 C 314.292 245.087,317.322 224.960,324.849 209.918 C 331.205 197.214,338.541 188.087,361.429 164.400 C 368.611 156.968,372.723 151.961,380.209 141.533 C 385.994 133.475,389.720 126.459,397.019 109.880 C 398.335 106.890,399.086 105.624,399.460 105.768 C 399.911 105.941,399.987 99.781,399.918 68.287 C 399.860 41.422,399.768 34.678,399.596 44.800 C 399.338 60.016,399.148 61.667,396.995 67.400 C 386.882 94.327,349.802 96.622,336.957 71.116 C 326.444 50.238,339.731 27.225,365.337 21.963 C 379.125 19.130,385.432 15.873,394.990 6.650 C 399.742 2.066,399.528 2.118,399.703 5.500 C 399.813 7.616,399.860 7.313,399.922 4.100 L 400.000 0.000 200.000 0.000 L 0.000 0.000 0.000 206.800 M399.785 180.600 C 399.785 191.380,399.837 195.733,399.900 190.272 C 399.963 184.812,399.963 175.992,399.900 170.672 C 399.837 165.353,399.785 169.820,399.785 180.600 M399.457 221.432 C 399.191 226.089,398.845 228.447,396.964 238.400 C 389.626 277.226,370.124 308.439,333.002 340.769 C 329.043 344.217,325.742 347.358,325.667 347.748 C 325.572 348.240,332.140 355.094,347.113 370.129 C 358.984 382.048,368.829 392.229,368.992 392.753 C 369.256 393.604,368.216 394.779,359.347 403.653 L 349.406 413.600 374.703 413.600 L 400.000 413.600 400.000 315.200 C 400.000 261.080,399.937 216.800,399.861 216.800 C 399.784 216.800,399.603 218.885,399.457 221.432 M152.500 362.900 C 125.791 389.575,103.580 411.895,103.142 412.500 L 102.346 413.600 137.473 413.544 L 172.600 413.488 184.390 401.444 C 226.045 358.893,235.600 348.950,235.600 348.159 C 235.600 346.912,203.100 314.434,201.831 314.413 C 201.335 314.405,183.837 331.604,152.500 362.900 M269.400 403.514 L 259.400 413.400 279.763 413.504 C 290.963 413.561,300.224 413.509,300.345 413.389 C 300.768 412.966,281.041 393.599,280.203 393.614 C 279.701 393.623,275.651 397.335,269.400 403.514 " stroke="none" fill="#ffffff" fill-rule="evenodd"></path></g></svg>
