<?xml version="1.0" encoding="UTF-8"?>
<svg xmlns="http://www.w3.org/2000/svg" xmlns:xlink="http://www.w3.org/1999/xlink" width="58px" height="60px" viewBox="0 0 58 60" version="1.1">
<g id="surface1">
<path stroke="none" fill="#ffffff" fill-rule="evenodd" d="M 27.601562 1.125 C 27.589844 1.140625 27.292969 1.164062 26.941406 1.183594 C 26.011719 1.234375 25.988281 1.238281 24.273438 1.511719 C 20.628906 2.101562 17.371094 3.265625 14.066406 5.15625 C 10.496094 7.203125 6.417969 11.019531 4.703125 13.921875 C 4.601562 14.09375 4.324219 14.53125 4.089844 14.898438 C 1.625 18.695312 0.296875 23.855469 0.363281 29.386719 C 0.394531 31.757812 0.40625 31.914062 0.78125 34.105469 C 1.613281 38.988281 4.292969 44.019531 8.199219 48.050781 C 8.667969 48.53125 10.519531 50.210938 10.921875 50.519531 C 11.246094 50.765625 11.222656 50.804688 10.046875 52.019531 C 9.449219 52.636719 7.605469 54.546875 5.945312 56.265625 C 4.289062 57.984375 2.808594 59.515625 2.65625 59.667969 L 2.382812 59.941406 L 14.707031 59.941406 L 16.820312 57.816406 C 19.320312 55.304688 21.28125 53.34375 25.839844 48.804688 C 28.664062 45.996094 29.226562 45.460938 29.332031 45.488281 C 29.539062 45.539062 34.230469 50.355469 34.210938 50.492188 C 34.1875 50.617188 32.265625 52.625 27.910156 57.074219 L 25.128906 59.914062 L 31.316406 59.929688 L 37.5 59.941406 L 38.976562 58.492188 C 39.789062 57.695312 40.484375 57.015625 40.523438 56.980469 C 40.570312 56.9375 40.640625 56.945312 40.761719 57.007812 C 40.9375 57.097656 43.617188 59.804688 43.617188 59.890625 C 43.617188 59.917969 45.148438 59.941406 47.082031 59.941406 L 50.550781 59.941406 L 52.011719 58.496094 C 52.816406 57.699219 53.476562 57.019531 53.476562 56.984375 C 53.476562 56.902344 52.871094 56.277344 50.171875 53.566406 C 47.421875 50.804688 47.152344 50.523438 47.152344 50.394531 C 47.152344 50.324219 47.503906 49.984375 48.09375 49.476562 C 49.96875 47.859375 52.03125 45.726562 53.171875 44.226562 C 54.027344 43.09375 54.984375 41.585938 54.984375 41.367188 C 54.984375 41.101562 49.644531 35.683594 49.417969 35.71875 C 49.265625 35.742188 47.617188 37.347656 43.605469 41.375 C 42.082031 42.90625 40.890625 44.058594 40.832031 44.058594 C 40.710938 44.058594 35.878906 39.234375 35.855469 39.089844 C 35.847656 39.019531 36.835938 37.988281 38.886719 35.941406 C 40.5625 34.269531 41.933594 32.859375 41.933594 32.8125 C 41.933594 32.761719 40.898438 31.691406 39.628906 30.433594 C 38.359375 29.175781 36.996094 27.8125 36.59375 27.40625 C 36.023438 26.824219 35.835938 26.667969 35.710938 26.667969 C 35.585938 26.667969 34.953125 27.265625 32.207031 29.988281 C 29.011719 33.152344 25.589844 36.527344 23.789062 38.289062 C 22.925781 39.132812 21.945312 40.128906 19.40625 42.722656 C 18.578125 43.570312 17.871094 44.269531 17.839844 44.277344 C 17.664062 44.320312 15.855469 42.753906 14.832031 41.667969 C 11.671875 38.316406 10.441406 35.707031 9.6875 30.765625 C 9.476562 29.371094 9.722656 26.335938 10.214844 24.300781 C 11.589844 18.628906 16.445312 13.550781 22.132812 11.835938 C 22.773438 11.644531 22.777344 11.636719 22.855469 10.753906 C 23.226562 6.480469 26.109375 2.652344 29.925781 1.363281 C 30.597656 1.136719 30.472656 1.101562 28.984375 1.101562 C 28.238281 1.101562 27.617188 1.113281 27.601562 1.125 "/>
<path stroke="none" fill="#db261d" fill-rule="evenodd" d="M 57.273438 0.964844 C 55.886719 2.300781 54.972656 2.773438 52.972656 3.183594 C 49.671875 3.863281 47.703125 6.613281 48.515625 9.417969 C 49.96875 14.425781 57.003906 13.882812 57.84375 8.695312 C 58.003906 7.714844 58.042969 0.40625 57.890625 0.40625 C 57.867188 0.40625 57.59375 0.65625 57.273438 0.964844 M 27.347656 1.085938 C 27.21875 1.097656 27.089844 1.136719 27.058594 1.171875 C 27.015625 1.214844 27.03125 1.21875 27.113281 1.1875 C 27.179688 1.160156 27.933594 1.128906 28.789062 1.113281 C 30.496094 1.085938 30.648438 1.121094 29.925781 1.363281 C 26.109375 2.652344 23.226562 6.480469 22.855469 10.753906 C 22.777344 11.636719 22.773438 11.644531 22.132812 11.835938 C 16.445312 13.550781 11.589844 18.628906 10.214844 24.300781 C 9.722656 26.335938 9.476562 29.371094 9.6875 30.765625 C 10.441406 35.707031 11.671875 38.316406 14.832031 41.667969 C 15.855469 42.753906 17.664062 44.320312 17.839844 44.277344 C 17.871094 44.269531 18.578125 43.570312 19.40625 42.722656 C 21.945312 40.128906 22.925781 39.132812 23.789062 38.289062 C 25.589844 36.527344 29.011719 33.152344 32.207031 29.988281 C 34.953125 27.265625 35.585938 26.667969 35.710938 26.667969 C 35.835938 26.667969 36.023438 26.824219 36.59375 27.40625 C 36.996094 27.8125 38.359375 29.175781 39.628906 30.433594 C 40.898438 31.691406 41.933594 32.761719 41.933594 32.8125 C 41.933594 32.859375 40.5625 34.269531 38.886719 35.941406 C 36.835938 37.988281 35.847656 39.019531 35.855469 39.089844 C 35.878906 39.234375 40.710938 44.058594 40.832031 44.058594 C 40.890625 44.058594 42.082031 42.90625 43.605469 41.375 C 47.617188 37.347656 49.265625 35.742188 49.417969 35.71875 C 49.644531 35.683594 54.984375 41.101562 54.984375 41.367188 C 54.984375 41.585938 54.027344 43.09375 53.171875 44.226562 C 52.03125 45.726562 49.96875 47.859375 48.09375 49.476562 C 47.503906 49.984375 47.152344 50.324219 47.152344 50.394531 C 47.152344 50.523438 47.421875 50.804688 50.171875 53.566406 C 52.898438 56.308594 53.476562 56.902344 53.476562 56.988281 C 53.476562 57.027344 52.886719 57.632812 52.164062 58.339844 C 51.445312 59.046875 50.800781 59.703125 50.734375 59.796875 C 50.671875 59.894531 51.277344 59.316406 52.082031 58.515625 C 53.390625 57.214844 53.542969 57.042969 53.503906 56.921875 C 53.480469 56.84375 52.050781 55.371094 50.332031 53.640625 C 48.160156 51.464844 47.207031 50.46875 47.222656 50.398438 C 47.234375 50.339844 47.710938 49.886719 48.285156 49.386719 C 53.667969 44.703125 56.496094 40.175781 57.558594 34.550781 C 57.828125 33.121094 57.875 32.789062 57.929688 31.914062 C 58.007812 30.589844 57.988281 15.347656 57.90625 15.320312 C 57.871094 15.308594 57.71875 15.582031 57.566406 15.925781 C 56.507812 18.328125 55.96875 19.34375 55.128906 20.511719 C 54.042969 22.023438 53.449219 22.75 52.40625 23.824219 C 49.089844 27.257812 48.023438 28.582031 47.101562 30.421875 C 46.011719 32.601562 45.574219 35.519531 45.980469 37.871094 C 46.050781 38.277344 46.109375 38.625 46.109375 38.644531 C 46.109375 38.746094 40.9375 44 40.835938 44 C 40.71875 44 35.902344 39.1875 35.902344 39.074219 C 35.90625 39.023438 37.273438 37.617188 38.949219 35.945312 C 40.960938 33.933594 41.992188 32.863281 41.996094 32.785156 C 41.996094 32.703125 41.074219 31.753906 39.03125 29.734375 C 36.835938 27.566406 36.070312 26.773438 36.085938 26.691406 C 36.105469 26.585938 36.210938 26.578125 38.65625 26.546875 C 41.511719 26.507812 41.621094 26.492188 43.082031 25.996094 C 48.222656 24.246094 50.136719 18.84375 47.109375 14.613281 C 46.625 13.933594 45.433594 12.695312 45.261719 12.695312 C 45.171875 12.695312 45.0625 12.824219 44.84375 13.1875 C 43.574219 15.257812 41.695312 16.707031 39.40625 17.367188 C 37.761719 17.84375 37.03125 17.910156 32.421875 17.96875 C 28.050781 18.027344 28.152344 18.019531 26.550781 18.429688 C 19.847656 20.136719 16.371094 25.96875 18.265625 32.320312 C 18.90625 34.476562 20.699219 36.96875 22.632812 38.398438 C 22.882812 38.582031 23.085938 38.757812 23.085938 38.792969 C 23.085938 38.824219 22.226562 39.730469 21.179688 40.800781 C 20.128906 41.875 18.976562 43.066406 18.613281 43.449219 C 17.78125 44.332031 17.863281 44.289062 17.472656 43.988281 C 13.664062 41.082031 10.867188 36.859375 10.085938 32.851562 C 9.78125 31.285156 9.714844 30.597656 9.71875 29.128906 C 9.71875 27.839844 9.757812 27.316406 9.949219 26.027344 C 11.066406 18.484375 16.96875 12.605469 24.765625 11.265625 C 25.226562 11.1875 26.074219 11.164062 30.015625 11.128906 C 34.992188 11.085938 34.894531 11.089844 36.359375 10.785156 C 40.027344 10.027344 43.09375 7.808594 45.886719 3.882812 C 47.0625 2.230469 47.550781 1.253906 47.273438 1.101562 C 47.167969 1.046875 27.914062 1.03125 27.347656 1.085938 M 26.273438 1.164062 C 26.003906 1.191406 25.613281 1.238281 25.402344 1.273438 C 25.195312 1.304688 24.691406 1.386719 24.28125 1.453125 C 20.628906 2.03125 17.421875 3.175781 13.960938 5.140625 C 11.976562 6.269531 9.136719 8.488281 7.863281 9.90625 C 7.765625 10.015625 7.5 10.304688 7.277344 10.546875 C 3.816406 14.273438 1.46875 19.019531 0.699219 23.839844 C 0.570312 24.667969 0.523438 24.972656 0.46875 25.449219 C 0.433594 25.71875 0.375 26.203125 0.335938 26.523438 C 0.160156 27.9375 0.265625 31.191406 0.554688 33.144531 C 1.492188 39.53125 4.742188 45.238281 10.078125 49.882812 C 10.628906 50.363281 11.078125 50.773438 11.078125 50.800781 C 11.078125 50.863281 10.746094 51.210938 7.28125 54.785156 C 3.433594 58.757812 2.355469 59.882812 2.414062 59.882812 C 2.441406 59.882812 2.570312 59.773438 2.695312 59.636719 C 2.941406 59.375 8.207031 53.921875 10.046875 52.019531 C 11.222656 50.804688 11.246094 50.765625 10.921875 50.519531 C 5.890625 46.679688 1.796875 40.0625 0.78125 34.105469 C 0.40625 31.914062 0.394531 31.757812 0.363281 29.386719 C 0.296875 23.855469 1.625 18.695312 4.089844 14.898438 C 4.324219 14.53125 4.601562 14.09375 4.703125 13.921875 C 5.714844 12.207031 8.398438 9.28125 10.445312 7.65625 C 14.640625 4.332031 19.117188 2.339844 24.273438 1.511719 C 24.6875 1.445312 25.171875 1.367188 25.347656 1.335938 C 25.519531 1.304688 25.898438 1.261719 26.1875 1.242188 C 26.472656 1.21875 26.75 1.179688 26.796875 1.152344 C 26.84375 1.128906 26.855469 1.109375 26.824219 1.109375 C 26.792969 1.113281 26.546875 1.136719 26.273438 1.164062 M 25.816406 48.828125 C 21.648438 52.96875 14.824219 59.816406 14.804688 59.871094 C 14.796875 59.894531 18.007812 56.699219 21.9375 52.765625 C 29.011719 45.695312 29.242188 45.476562 29.445312 45.632812 C 29.78125 45.890625 34.160156 50.371094 34.160156 50.457031 C 34.160156 50.578125 31.140625 53.710938 26.75 58.148438 C 25.246094 59.667969 24.992188 59.941406 25.078125 59.941406 C 25.105469 59.941406 31.21875 53.691406 32.988281 51.855469 C 33.671875 51.148438 34.21875 50.53125 34.21875 50.472656 C 34.21875 50.339844 29.507812 45.53125 29.332031 45.488281 C 29.226562 45.460938 28.660156 46 25.816406 48.828125 M 39.078125 58.394531 C 38.257812 59.199219 37.585938 59.875 37.585938 59.898438 C 37.585938 59.921875 38.238281 59.296875 39.039062 58.507812 C 39.882812 57.675781 40.546875 57.066406 40.621094 57.054688 C 40.714844 57.042969 41.078125 57.371094 42.179688 58.480469 C 42.96875 59.269531 43.617188 59.902344 43.617188 59.878906 C 43.617188 59.730469 40.730469 56.914062 40.589844 56.929688 C 40.578125 56.929688 39.898438 57.589844 39.078125 58.394531 "/>
<path stroke="none" fill="#000000" fill-rule="evenodd" fill-opacity="0.0" d="M 0 29.972656 L 0 59.941406 L 1.175781 59.933594 L 2.347656 59.929688 L 2.898438 59.339844 C 3.203125 59.015625 4.925781 57.226562 6.730469 55.359375 C 10.632812 51.328125 11.078125 50.859375 11.078125 50.800781 C 11.078125 50.773438 10.628906 50.363281 10.078125 49.882812 C 4.742188 45.238281 1.492188 39.53125 0.554688 33.144531 C 0.265625 31.191406 0.160156 27.9375 0.335938 26.523438 C 0.375 26.203125 0.433594 25.71875 0.46875 25.449219 C 0.523438 24.972656 0.570312 24.667969 0.699219 23.839844 C 1.46875 19.019531 3.816406 14.273438 7.277344 10.546875 C 7.5 10.304688 7.765625 10.015625 7.863281 9.90625 C 9.136719 8.488281 11.976562 6.269531 13.960938 5.140625 C 17.449219 3.160156 20.835938 1.960938 24.445312 1.425781 C 24.796875 1.371094 25.214844 1.304688 25.375 1.277344 C 25.535156 1.246094 25.859375 1.207031 26.101562 1.1875 C 26.339844 1.167969 26.679688 1.136719 26.855469 1.117188 C 27.503906 1.054688 47.152344 1.039062 47.269531 1.101562 C 47.550781 1.253906 47.070312 2.222656 45.886719 3.882812 C 43.09375 7.808594 40.027344 10.027344 36.359375 10.785156 C 34.894531 11.089844 34.992188 11.085938 30.015625 11.128906 C 26.074219 11.164062 25.226562 11.1875 24.765625 11.265625 C 18.816406 12.285156 13.992188 15.875 11.421875 21.1875 C 9.757812 24.621094 9.289062 28.738281 10.085938 32.851562 C 10.867188 36.859375 13.664062 41.082031 17.472656 43.988281 C 17.863281 44.289062 17.78125 44.332031 18.613281 43.449219 C 18.976562 43.066406 20.128906 41.875 21.179688 40.800781 C 22.226562 39.730469 23.085938 38.824219 23.085938 38.792969 C 23.085938 38.757812 22.882812 38.582031 22.632812 38.398438 C 20.699219 36.96875 18.90625 34.476562 18.265625 32.320312 C 16.371094 25.96875 19.847656 20.136719 26.550781 18.429688 C 28.152344 18.019531 28.050781 18.027344 32.421875 17.96875 C 37.03125 17.910156 37.761719 17.84375 39.40625 17.367188 C 41.695312 16.707031 43.574219 15.257812 44.84375 13.1875 C 45.238281 12.539062 45.230469 12.539062 46.050781 13.378906 C 50.363281 17.792969 48.898438 24.015625 43.082031 25.996094 C 41.621094 26.492188 41.511719 26.507812 38.65625 26.546875 C 36.210938 26.578125 36.105469 26.585938 36.085938 26.691406 C 36.070312 26.773438 36.835938 27.566406 39.03125 29.734375 C 41.074219 31.753906 41.996094 32.703125 41.996094 32.785156 C 41.992188 32.863281 40.960938 33.933594 38.949219 35.945312 C 37.273438 37.617188 35.90625 39.023438 35.902344 39.074219 C 35.902344 39.1875 40.71875 44 40.835938 44 C 40.9375 44 46.109375 38.746094 46.109375 38.644531 C 46.109375 38.625 46.050781 38.277344 45.980469 37.871094 C 45.574219 35.519531 46.011719 32.601562 47.101562 30.421875 C 48.023438 28.582031 49.089844 27.257812 52.40625 23.824219 C 53.449219 22.75 54.042969 22.023438 55.128906 20.511719 C 55.96875 19.34375 56.507812 18.328125 57.566406 15.925781 C 57.757812 15.492188 57.867188 15.308594 57.921875 15.328125 C 57.988281 15.355469 58 14.460938 57.988281 9.898438 C 57.980469 6.003906 57.964844 5.027344 57.941406 6.492188 C 57.902344 8.699219 57.875 8.9375 57.5625 9.769531 C 56.097656 13.671875 50.722656 14.003906 48.859375 10.308594 C 47.335938 7.28125 49.261719 3.945312 52.972656 3.183594 C 54.972656 2.773438 55.886719 2.300781 57.273438 0.964844 C 57.960938 0.300781 57.929688 0.308594 57.957031 0.796875 C 57.972656 1.105469 57.980469 1.058594 57.988281 0.59375 L 58 0 L 0 0 L 0 29.972656 M 57.96875 26.175781 C 57.96875 27.734375 57.976562 28.367188 57.984375 27.574219 C 57.996094 26.785156 57.996094 25.507812 57.984375 24.734375 C 57.976562 23.964844 57.96875 24.613281 57.96875 26.175781 M 57.921875 32.089844 C 57.882812 32.765625 57.832031 33.109375 57.558594 34.550781 C 56.496094 40.175781 53.667969 44.703125 48.285156 49.386719 C 47.710938 49.886719 47.234375 50.339844 47.222656 50.398438 C 47.207031 50.46875 48.160156 51.464844 50.332031 53.640625 C 52.050781 55.371094 53.480469 56.84375 53.503906 56.921875 C 53.542969 57.042969 53.390625 57.214844 52.105469 58.5 L 50.664062 59.941406 L 58 59.941406 L 58 45.679688 C 58 37.835938 57.992188 31.421875 57.980469 31.421875 C 57.96875 31.421875 57.941406 31.722656 57.921875 32.089844 M 22.113281 52.59375 C 18.238281 56.460938 15.019531 59.695312 14.957031 59.78125 L 14.839844 59.941406 L 25.027344 59.925781 L 26.738281 58.179688 C 32.777344 52.011719 34.160156 50.574219 34.160156 50.457031 C 34.160156 50.277344 29.449219 45.570312 29.265625 45.566406 C 29.195312 45.566406 26.65625 48.058594 22.113281 52.59375 M 39.0625 58.480469 L 37.613281 59.914062 L 40.566406 59.929688 C 42.191406 59.9375 43.53125 59.929688 43.550781 59.910156 C 43.613281 59.851562 40.75 57.042969 40.628906 57.046875 C 40.558594 57.046875 39.96875 57.585938 39.0625 58.480469 "/>
</g>
</svg>
